<svg width="100%" height="100%" viewBox="0 0 1844 407" fill="none" xmlns="http://www.w3.org/2000/svg">
<path d="M34.8366 297.901C46.6084 326.879 85.092 350.409 127.645 350.409C170.198 350.409 208.682 326.865 220.454 297.901L255.318 326.879C240.378 354.492 196.009 393.877 127.659 393.877C59.3096 393.877 14.94 354.492 0 326.879L34.8648 297.901H34.8366ZM121.745 63.8447H250.77V99.6107H212.737C231.296 119.535 242.167 146.698 242.167 177.93C242.167 244.477 194.178 295.183 121.745 295.183C49.312 295.183 2.22481 244.477 2.22481 177.93C2.22481 111.382 49.7626 63.8447 121.745 63.8447ZM186.941 177.93C186.941 138.545 164.763 109.566 121.745 109.566C78.7274 109.566 57.0143 138.545 57.0143 177.93C57.0143 217.314 79.6567 249.011 121.745 249.011C163.833 249.011 186.941 216.864 186.941 177.93Z" fill="currentColor"/>
<path d="M328.173 183.365C329.99 222.299 358.053 250.362 396.537 250.362C422.348 250.362 443.624 237.689 457.649 213.245L497.935 243.125C473.941 278.44 440.442 295.633 396.072 295.633C321.372 295.633 273.384 247.194 273.384 179.746C273.384 117.719 319.105 63.8584 391.538 63.8584C458.987 63.8584 502.906 110.946 502.906 183.379H328.159L328.173 183.365ZM442.258 140.812C431.388 123.154 412.378 109.58 389.75 109.58C367.122 109.58 347.647 123.154 336.326 140.812H442.258Z" fill="currentColor"/>
<path d="M552.711 293.816V110.917H521.015V63.8296H551.796L564.469 0H603.403V63.8296H644.14V110.917H603.403V293.816H552.697H552.711Z" fill="currentColor"/>
<path d="M770.926 295.183C707.998 295.183 662.276 246.744 662.276 179.746C662.276 112.748 710.265 63.8584 781.797 63.8584C848.794 63.8584 898.599 105.06 898.599 173.409V293.831H847.893V260.782C832.953 282.059 803.974 295.183 770.94 295.183H770.926ZM847.879 180.196V175.212C847.879 135.376 822.069 109.115 783.148 109.115C744.228 109.115 714.785 138.094 714.785 178.83C714.785 219.567 742.398 249.447 780.431 249.447C818.464 249.447 847.879 219.567 847.879 180.182V180.196Z" fill="currentColor"/>
<path d="M1450.24 295.183C1387.31 295.183 1341.59 246.744 1341.59 179.746C1341.59 112.748 1389.58 63.8584 1461.11 63.8584C1528.11 63.8584 1577.91 105.06 1577.91 173.409V293.831H1527.21V260.782C1512.27 282.059 1483.29 295.183 1450.25 295.183H1450.24ZM1527.21 180.196V175.212C1527.21 135.376 1501.4 109.115 1462.48 109.115C1423.56 109.115 1394.11 138.094 1394.11 178.83C1394.11 219.567 1421.73 249.447 1459.76 249.447C1497.79 249.447 1527.21 219.567 1527.21 180.182V180.196Z" fill="currentColor"/>
<path d="M1691.53 298.801L1602.81 67.4629H1658.95L1722.33 224.101L1787.07 67.4629H1843.22L1695.63 407H1647.19L1691.56 298.801H1691.53Z" fill="currentColor"/>
<path d="M1051.58 307.32C1046.92 307.32 1042.38 306.967 1038 306.263C1020.06 303.377 1000.81 292.886 983.804 276.721C966.357 260.148 952.67 238.702 945.264 216.328C929.042 167.382 942.152 117.535 982.184 75.9672L1003.59 96.765C962.668 139.262 964.653 180.097 973.524 206.879C979.41 224.663 990.337 241.744 1004.28 254.98C1016.8 266.879 1030.81 274.792 1042.73 276.721C1060.35 279.566 1083.51 273.088 1103.79 260.444C1088.12 242.025 1079.84 221.749 1080.72 203.091C1081.88 178.703 1098.38 151.132 1121.12 148.978C1131.01 148.048 1141.15 151.864 1150.45 160.017C1163.77 171.69 1172.83 190.024 1173.53 206.724C1174.28 224.706 1165.79 243.8 1149.41 261.387C1166.42 272.849 1185.08 278.833 1199.05 276.749C1210.31 275.074 1225.17 267.386 1237.81 256.712C1248.51 247.686 1262.81 232.366 1270.16 210.625C1282.41 174.408 1269.44 135.023 1232.64 96.7368L1254.06 75.9531C1277.72 100.581 1293.25 126.152 1300.22 151.977C1306.47 175.14 1305.84 198.107 1298.35 220.256C1288.79 248.531 1270.56 268.146 1256.96 279.622C1239.83 294.083 1220.32 303.813 1203.43 306.334C1200.15 306.827 1196.77 307.066 1193.32 307.066C1171.88 307.066 1147.61 297.801 1126.14 281.453C1115.66 288.747 1104.15 294.886 1092.58 299.265C1078.51 304.588 1064.57 307.305 1051.6 307.305L1051.58 307.32ZM1123.99 178.759C1123.99 178.759 1123.92 178.759 1123.91 178.759C1122.92 178.858 1119.86 180.702 1116.59 185.8C1113.1 191.277 1110.74 198.444 1110.46 204.499C1109.94 215.44 1116.11 229 1127.01 241.631C1138.03 229.972 1144.19 217.764 1143.78 207.977C1143.43 199.486 1138.01 188.799 1130.88 182.561C1127.29 179.421 1124.76 178.759 1124.01 178.759H1123.99Z" fill="currentColor"/>
<path d="M1051.58 313.615C1046.55 313.615 1041.61 313.235 1036.9 312.474C1017.61 309.363 997.096 298.253 979.128 281.172C960.95 263.895 946.671 241.534 938.941 218.216C921.973 167.031 935.604 115.001 977.298 71.7018L982.043 66.7734L1012.74 96.6113L1008.5 101.005C969.708 141.291 971.525 179.774 979.875 204.965C985.451 221.792 995.786 237.971 1008.98 250.504C1020.54 261.487 1033.26 268.781 1043.85 270.485C1057.77 272.723 1076.53 268.26 1094.06 258.699C1080.29 240.534 1073.23 220.905 1074.09 202.783C1075.36 175.874 1093.45 145.233 1120.46 142.685C1132.29 141.572 1144.22 145.951 1154.96 155.372C1169.5 168.129 1179.4 188.181 1180.16 206.472C1180.91 224.228 1173.7 242.618 1159.27 260.008C1173.21 268.091 1187.61 272.076 1198 270.527C1207.93 269.048 1221.82 261.782 1233.39 252.01C1243.47 243.505 1256.93 229.086 1263.82 208.711C1275.3 174.775 1262.82 137.531 1227.73 101.005L1223.49 96.5972L1254.22 66.7875L1258.95 71.7159C1283.35 97.1182 1299.39 123.591 1306.63 150.429C1313.19 174.761 1312.53 198.91 1304.64 222.201C1294.62 251.827 1275.56 272.357 1261.34 284.354C1243.29 299.59 1222.53 309.883 1204.43 312.587C1200.84 313.122 1197.09 313.39 1193.29 313.39C1171.8 313.39 1147.5 304.659 1125.94 289.311C1116.11 295.732 1105.51 301.153 1095.02 305.124C1080.13 310.757 1065.52 313.615 1051.59 313.615H1051.58ZM982.423 85.2338C947.713 124.027 936.758 169.678 951.586 214.442C958.683 235.873 971.792 256.403 988.492 272.273C1004.53 287.509 1022.51 297.379 1039.1 300.055C1043.08 300.689 1047.27 301.026 1051.56 301.026C1063.81 301.026 1076.77 298.478 1090.09 293.437C1101.03 289.297 1112.12 283.411 1122.18 276.399L1126.29 273.54L1130.26 276.568C1150.47 291.972 1173.43 300.801 1193.29 300.801C1196.41 300.801 1199.47 300.576 1202.37 300.153C1218.04 297.816 1236.32 288.635 1252.53 274.948C1265.51 263.993 1282.9 245.279 1292.01 218.37C1299.11 197.376 1299.7 175.592 1293.77 153.583C1287.55 130.504 1274.11 107.538 1253.81 85.2338L1241.7 96.9774C1276.97 135.644 1289 175.522 1276.45 212.583C1268.64 235.676 1253.51 251.912 1242.19 261.459C1228.43 273.061 1212.68 281.116 1200.05 283.003C1184.63 285.298 1164.25 279.159 1145.55 266.542L1139.53 262.472L1144.43 257.22C1159.8 240.703 1167.58 223.327 1166.89 206.979C1166.25 191.87 1158.03 175.254 1145.95 164.651C1138.08 157.751 1129.73 154.485 1121.77 155.245C1102.73 157.047 1088.36 182.055 1087.34 203.36C1086.54 220.314 1094.21 239.168 1108.94 256.474L1113.55 261.895L1107.42 265.711C1085.22 279.553 1060.62 286.002 1041.61 282.932C1028.36 280.792 1013.04 272.231 999.574 259.445C984.902 245.505 973.397 227.509 967.188 208.781C958.105 181.379 955.782 140.108 994.533 96.9915L982.437 85.2338H982.423ZM1126.75 251.32L1121.85 245.631C1109.81 231.649 1103.24 216.554 1103.82 204.219C1104.15 197.066 1106.8 188.955 1110.9 182.534C1114.67 176.62 1119.29 172.86 1123.23 172.48C1123.47 172.452 1123.71 172.452 1123.98 172.452C1127.25 172.452 1131.39 174.452 1135.36 177.93C1143.78 185.322 1149.96 197.573 1150.38 207.739C1150.86 219.201 1144.3 232.747 1131.91 245.857L1126.74 251.334L1126.75 251.32ZM1124.7 185.885C1124.04 186.575 1123.19 187.603 1122.25 189.068C1119.35 193.63 1117.31 199.798 1117.07 204.782C1116.71 212.273 1120.43 221.891 1127.22 231.41C1133.77 222.989 1137.39 214.639 1137.13 208.232C1136.85 201.375 1132.22 192.32 1126.36 187.195C1125.73 186.632 1125.16 186.209 1124.7 185.885Z" fill="currentColor"/>
<path d="M1039.82 78.1644C1060.07 78.1644 1076.48 61.748 1076.48 41.4972C1076.48 21.2465 1060.07 4.83008 1039.82 4.83008C1019.57 4.83008 1003.15 21.2465 1003.15 41.4972C1003.15 61.748 1019.57 78.1644 1039.82 78.1644Z" fill="currentColor"/>
<path d="M1196.89 78.1644C1217.14 78.1644 1233.56 61.748 1233.56 41.4972C1233.56 21.2465 1217.14 4.83008 1196.89 4.83008C1176.64 4.83008 1160.23 21.2465 1160.23 41.4972C1160.23 61.748 1176.64 78.1644 1196.89 78.1644Z" fill="currentColor"/>
</svg>
