<svg width="731" height="595" viewBox="0 0 731 595" fill="none" xmlns="http://www.w3.org/2000/svg">
<path d="M230.729 582.85C221.749 582.85 213.009 582.18 204.579 580.82C170.009 575.25 132.919 555.04 100.159 523.91C66.5588 491.98 40.1788 450.66 25.8888 407.54C-5.36116 313.23 19.8988 217.18 97.0288 137.08L138.259 177.17C59.3988 259.07 63.2288 337.75 80.3188 389.33C91.6688 423.59 112.719 456.51 139.569 482.02C163.689 504.94 190.689 520.2 213.659 523.9C247.589 529.37 292.239 516.9 331.309 492.53C301.099 457.05 285.159 417.98 286.859 382.01C289.079 335.01 320.889 281.89 364.709 277.75C383.749 275.95 403.299 283.31 421.239 299.03C446.899 321.53 464.349 356.86 465.699 389.04C467.149 423.69 450.779 460.47 419.219 494.37C451.999 516.47 487.939 528 514.849 523.98C536.549 520.74 565.169 505.95 589.549 485.38C610.159 467.99 637.699 438.47 651.879 396.58C675.489 326.8 650.489 250.92 579.599 177.14L620.869 137.09C666.459 184.54 696.379 233.82 709.809 283.58C721.849 328.22 720.639 372.48 706.199 415.14C687.759 469.63 652.659 507.43 626.449 529.54C593.439 557.39 555.839 576.15 523.289 581.01C516.969 581.95 510.449 582.42 503.799 582.42C462.509 582.42 415.719 564.58 374.359 533.06C354.179 547.12 331.999 558.93 309.699 567.37C282.579 577.63 255.739 582.86 230.739 582.86L230.729 582.85ZM370.269 335.13C370.199 335.13 370.149 335.13 370.099 335.13C368.209 335.31 362.269 338.86 355.989 348.71C349.259 359.26 344.729 373.07 344.179 384.73C343.179 405.81 355.059 431.93 376.049 456.29C397.289 433.82 409.159 410.31 408.369 391.45C407.689 375.09 397.229 354.49 383.509 342.46C376.599 336.4 371.709 335.13 370.259 335.13H370.269Z" fill="black"/>
<path d="M230.729 595C221.039 595 211.519 594.26 202.449 592.8C165.279 586.81 125.739 565.4 91.1191 532.5C56.0891 499.22 28.5891 456.13 13.6991 411.19C-18.9809 312.57 7.25908 212.31 87.5991 128.87L96.7291 119.39L155.869 176.89L147.709 185.37C72.9691 263 76.4491 337.15 92.5391 385.68C103.289 418.11 123.209 449.27 148.639 473.43C170.929 494.61 195.409 508.64 215.819 511.92C242.639 516.24 278.779 507.62 312.579 489.22C286.049 454.22 272.459 416.39 274.109 381.47C276.559 329.61 311.419 270.58 363.469 265.66C386.259 263.5 409.239 271.96 429.939 290.11C457.969 314.69 477.029 353.33 478.499 388.56C479.929 422.77 466.049 458.21 438.229 491.73C465.099 507.31 492.839 514.98 512.879 511.99C531.999 509.14 558.759 495.13 581.069 476.31C600.489 459.93 626.429 432.15 639.709 392.87C661.829 327.48 637.779 255.71 570.159 185.34L562.009 176.85L621.209 119.41L630.329 128.9C677.349 177.83 708.259 228.86 722.209 280.56C734.859 327.45 733.569 373.98 718.389 418.85C699.069 475.95 662.359 515.5 634.949 538.62C600.159 567.98 560.179 587.8 525.279 593.01C518.369 594.04 511.139 594.56 503.809 594.56C462.419 594.56 415.589 577.74 374.029 548.17C355.079 560.54 334.649 571 314.429 578.64C285.749 589.49 257.599 594.99 230.739 594.99L230.729 595ZM97.5091 154.92C30.6291 229.67 9.50908 317.63 38.0891 403.88C51.7691 445.16 77.0291 484.74 109.199 515.31C140.109 544.67 174.739 563.68 206.719 568.84C214.389 570.07 222.459 570.7 230.729 570.7C254.329 570.7 279.299 565.78 304.959 556.07C326.029 548.1 347.409 536.75 366.789 523.25L374.699 517.74L382.349 523.58C421.279 553.25 465.539 570.27 503.779 570.27C509.789 570.27 515.679 569.85 521.279 569.01C551.469 564.5 586.699 546.81 617.929 520.45C642.949 499.34 676.449 463.29 693.999 411.42C707.689 370.97 708.829 328.98 697.389 286.6C685.389 242.12 659.509 197.87 620.389 154.91L597.059 177.55C665.029 252.06 688.189 328.89 664.029 400.31C648.969 444.81 619.819 476.08 598.019 494.48C571.509 516.84 541.149 532.36 516.809 536C487.089 540.43 447.829 528.58 411.789 504.3L400.179 496.47L409.609 486.34C439.239 454.51 454.209 421.04 452.889 389.54C451.669 360.42 435.839 328.41 412.539 307.98C397.369 294.68 381.269 288.4 365.959 289.86C329.279 293.33 301.559 341.51 299.629 382.58C298.089 415.24 312.869 451.58 341.249 484.91L350.129 495.35L338.319 502.72C295.539 529.4 248.119 541.8 211.509 535.91C185.989 531.8 156.469 515.3 130.509 490.64C102.229 463.77 80.0591 429.09 68.0991 393C50.5991 340.19 46.1191 260.68 120.779 177.6L97.4791 154.95L97.5091 154.92ZM375.609 474.96L366.159 463.99C342.949 437.06 330.279 407.97 331.399 384.19C332.049 370.4 337.149 354.79 345.049 342.41C352.329 331 361.219 323.76 368.829 323.04C369.279 323 369.749 322.97 370.269 322.97C376.549 322.97 384.539 326.82 392.189 333.53C408.419 347.76 420.329 371.38 421.149 390.96C422.069 413.06 409.429 439.14 385.559 464.41L375.599 474.96H375.609ZM371.639 348.88C370.359 350.21 368.739 352.19 366.929 355.02C361.329 363.8 357.409 375.68 356.959 385.29C356.279 399.74 363.439 418.25 376.509 436.59C389.129 420.36 396.109 404.28 395.599 391.94C395.049 378.72 386.129 361.29 374.849 351.4C373.619 350.32 372.539 349.5 371.639 348.88Z" fill="black"/>
<path d="M208.099 141.32C247.124 141.32 278.759 109.684 278.759 70.66C278.759 31.6356 247.124 0 208.099 0C169.075 0 137.439 31.6356 137.439 70.66C137.439 109.684 169.075 141.32 208.099 141.32Z" fill="black"/>
<path d="M510.738 141.32C549.763 141.32 581.398 109.684 581.398 70.66C581.398 31.6356 549.763 0 510.738 0C471.714 0 440.078 31.6356 440.078 70.66C440.078 109.684 471.714 141.32 510.738 141.32Z" fill="black"/>
</svg>
